<mxfile host="app.diagrams.net" modified="2022-09-23T20:33:23.319Z" agent="5.0 (X11; Linux x86_64) AppleWebKit/537.36 (KHTML, like Gecko) Chrome/105.0.0.0 Safari/537.36" etag="SzWB8Q8QNhy6y1SzKs4v" version="20.3.6" type="github">
  <diagram id="YUMToBVWPzT9BkzUUdDK" name="PÃ¡gina-1">
    <mxGraphModel dx="1409" dy="726" grid="1" gridSize="10" guides="1" tooltips="1" connect="1" arrows="1" fold="1" page="1" pageScale="1" pageWidth="827" pageHeight="1169" math="0" shadow="0">
      <root>
        <mxCell id="0" />
        <mxCell id="1" parent="0" />
        <mxCell id="eoxKrZx7QiqQ9LlwGsTr-3" style="edgeStyle=orthogonalEdgeStyle;rounded=0;orthogonalLoop=1;jettySize=auto;html=1;" edge="1" parent="1">
          <mxGeometry relative="1" as="geometry">
            <mxPoint x="270" y="210" as="targetPoint" />
            <mxPoint x="180" y="235" as="sourcePoint" />
          </mxGeometry>
        </mxCell>
        <mxCell id="eoxKrZx7QiqQ9LlwGsTr-4" value="Actor" style="shape=umlActor;verticalLabelPosition=bottom;verticalAlign=top;html=1;" vertex="1" parent="1">
          <mxGeometry x="100" y="220" width="30" height="60" as="geometry" />
        </mxCell>
      </root>
    </mxGraphModel>
  </diagram>
</mxfile>
